<svg width="338" height="360" viewBox="0 0 338 360" fill="none" xmlns="http://www.w3.org/2000/svg">
<path d="M68.3951 269.529L4.58226 232.62C2.24738 231.263 2.53376 228.902 5.23209 227.346L72.8666 188.131C75.5649 186.564 79.651 186.399 81.9859 187.756L145.799 224.665C148.134 226.022 147.847 228.383 145.149 229.939L77.5143 269.154C74.816 270.721 70.73 270.887 68.3951 269.529Z" fill="#ECF1F9"/>
<path d="M72.9981 84.9486C72.9981 84.9486 37.9639 88.2919 16.8618 89.9139L72.8219 249.588L146.844 206.82C146.855 206.809 146.866 206.809 146.877 206.798L147.01 206.721V206.71C147.935 206.125 148.518 204.845 148.518 203.046V46.9803C148.518 45.3362 148.023 43.5597 147.23 42.0039L72.9981 84.9486Z" fill="#396CAA"/>
<path d="M143.948 38.2082L78.8464 0.548843C77.712 -0.102169 76.6767 -0.157341 75.8838 0.295057L1.56396 43.2508L5.06628 56.2379L23.7013 109.411L27.2147 111.441L147.252 42.0039C146.415 40.3599 145.247 38.9585 143.948 38.2082Z" fill="#D4ECFF"/>
<path d="M69.683 249.445L4.58163 211.785C2.0485 210.318 0 206.39 0 203.013V46.9471C0 43.5707 2.0485 42.0148 4.58163 43.4713L69.683 81.1307C72.2162 82.5982 74.2647 86.5264 74.2647 89.9028V245.98C74.2647 249.356 72.2162 250.912 69.683 249.445Z" fill="#97BDE3"/>
<path d="M71.0813 80.3363L5.97989 42.677C4.51508 41.8274 3.21545 42.0039 2.37842 42.9418C3.03923 42.8425 3.78817 42.997 4.59216 43.4604L69.6936 81.1198C72.2267 82.5873 74.2752 86.5154 74.2752 89.8919V245.969C74.2752 247.393 73.9118 248.485 73.295 249.18C74.7048 248.959 75.674 247.503 75.674 245.186V89.1195C75.6629 85.732 73.6144 81.8039 71.0813 80.3363Z" fill="white" fill-opacity="0.3"/>
<path d="M65.5857 240.044L8.67837 207.129C6.46463 205.849 4.66943 202.418 4.66943 199.46V54.5166C4.66943 51.5595 6.46463 50.2023 8.67837 51.4822L65.5857 84.3969C67.7994 85.6769 69.5946 89.1085 69.5946 92.0656V237.009C69.5946 239.967 67.7994 241.324 65.5857 240.044Z" fill="#06033E"/>
<path d="M65.5857 240.044L8.67837 207.129C6.46463 205.849 4.66943 202.418 4.66943 199.46V54.5166C4.66943 51.5595 6.46463 50.2023 8.67837 51.4822L65.5857 84.3969C67.7994 85.6769 69.5946 89.1085 69.5946 92.0656V237.009C69.5946 239.967 67.7994 241.324 65.5857 240.044Z" fill="#06033E"/>
<path d="M65.5857 240.044L8.67837 207.129C6.46463 205.849 4.66943 202.418 4.66943 199.46V54.5166C4.66943 51.5595 6.46463 50.2023 8.67837 51.4822L65.5857 84.3969C67.7994 85.6769 69.5946 89.1085 69.5946 92.0656V237.009C69.5946 239.967 67.7994 241.324 65.5857 240.044Z" fill="#173D7A"/>
<path d="M67.447 238.951L10.5397 206.037C8.32593 204.757 6.53073 201.325 6.53073 198.368V53.4131C6.53073 52.409 6.73998 51.5925 7.10343 50.9967C5.67166 50.9856 4.66943 52.2987 4.66943 54.5165V199.46C4.66943 202.418 6.46463 205.849 8.67837 207.129L65.5857 240.044C67.0395 240.882 68.317 240.584 69.0219 239.426C68.5373 239.426 68.0087 239.271 67.447 238.951Z" fill="#396CAA"/>
<path d="M65.5856 173.497L44.4285 161.261L10.6938 180.769L69.5836 214.831V181.155C69.5946 178.22 67.7994 174.777 65.5856 173.497Z" fill="#173D7A"/>
<path d="M65.5856 143.804L44.4285 131.568L10.6938 151.076L69.5836 185.138V151.462C69.5946 148.516 67.7994 145.084 65.5856 143.804Z" fill="#173D7A"/>
<path d="M65.5856 114.101L44.4285 101.864L10.6938 121.372L69.5836 155.434V121.758C69.5946 118.812 67.7994 115.381 65.5856 114.101Z" fill="#173D7A"/>
<path d="M65.5856 84.397L44.4285 72.1601L10.6938 91.6684L69.5836 125.731V92.0546C69.5946 89.1085 67.7994 85.6769 65.5856 84.397Z" fill="#173D7A"/>
<path d="M65.5856 84.3969L18.7558 57.3082L10.6938 61.9756L69.5836 96.0379V92.0656C69.5946 89.1085 67.7994 85.6769 65.5856 84.3969Z" fill="#173D7A"/>
<path d="M69.5948 96.0378L10.7051 61.9756V80.7445L69.5948 114.807V96.0378Z" fill="#5793CE"/>
<path d="M69.5948 125.742L10.7051 91.6794V110.448L69.5948 144.511V125.742Z" fill="#5793CE"/>
<path d="M69.5948 155.446L10.7051 121.372V140.152L69.5948 174.214V155.446Z" fill="#5793CE"/>
<path d="M69.5948 185.149L10.7051 151.076V169.856L69.5948 203.918V185.149Z" fill="#5793CE"/>
<path d="M69.5948 214.842L10.7051 180.78V199.549L69.5948 233.622V214.842Z" fill="#5793CE"/>
<path d="M64.3957 108.121L20.033 82.4666C18.7774 81.7383 17.7642 79.7963 17.7642 78.1302V73.0986C17.7642 71.4214 18.7774 70.6601 20.033 71.3773L64.3957 97.0316C65.6513 97.7598 66.6646 99.7018 66.6646 101.368V106.4C66.6646 108.077 65.6513 108.849 64.3957 108.121Z" fill="#173D7A"/>
<path opacity="0.3" d="M22.2795 81.4949C21.0239 80.7667 20.0107 78.8247 20.0107 77.1585V72.127C20.0107 71.8622 20.0437 71.6194 20.0988 71.4098L20.0437 71.3767C18.7882 70.6484 17.7749 71.4208 17.7749 73.098V78.1295C17.7749 79.8067 18.7882 81.7487 20.0437 82.4659L64.4065 108.12C65.4638 108.727 66.3339 108.275 66.5872 107.127L22.2795 81.4949Z" fill="#06033E"/>
<path d="M50.4748 94.3387L23.7778 78.902C23.3373 78.6482 22.9849 77.9641 22.9849 77.3793C22.9849 76.7945 23.3373 76.5186 23.7778 76.7724L50.4748 92.2091C50.9153 92.4629 51.2678 93.147 51.2678 93.7318C51.2788 94.3276 50.9153 94.5925 50.4748 94.3387Z" fill="white"/>
<path d="M64.3957 137.636L20.033 111.982C18.7774 111.254 17.7642 109.312 17.7642 107.646V102.614C17.7642 100.937 18.7774 100.176 20.033 100.893L64.3957 126.547C65.6513 127.275 66.6646 129.217 66.6646 130.884V135.915C66.6646 137.592 65.6513 138.365 64.3957 137.636Z" fill="#173D7A"/>
<path opacity="0.3" d="M22.2795 111.022C21.0239 110.294 20.0107 108.352 20.0107 106.686V101.654C20.0107 101.389 20.0437 101.146 20.0988 100.937L20.0437 100.904C18.7882 100.175 17.7749 100.948 17.7749 102.625V107.635C17.7749 109.312 18.7882 111.254 20.0437 111.971L64.4065 137.625C65.4638 138.232 66.3339 137.78 66.5872 136.632L22.2795 111.022Z" fill="#06033E"/>
<path d="M50.4748 123.866L23.7778 108.429C23.3373 108.175 22.9849 107.491 22.9849 106.906C22.9849 106.322 23.3373 106.046 23.7778 106.3L50.4748 121.736C50.9153 121.99 51.2678 122.674 51.2678 123.259C51.2788 123.844 50.9153 124.12 50.4748 123.866Z" fill="white"/>
<path d="M64.3957 167.428L20.033 141.774C18.7774 141.046 17.7642 139.104 17.7642 137.438V132.406C17.7642 130.729 18.7774 129.968 20.033 130.685L64.3957 156.339C65.6513 157.067 66.6646 159.009 66.6646 160.675V165.707C66.6646 167.384 65.6513 168.157 64.3957 167.428Z" fill="#173D7A"/>
<path opacity="0.3" d="M22.2795 140.814C21.0239 140.086 20.0107 138.144 20.0107 136.477V131.446C20.0107 131.181 20.0437 130.938 20.0988 130.729L20.0437 130.696C18.7882 129.967 17.7749 130.74 17.7749 132.417V137.448C17.7749 139.126 18.7882 141.068 20.0437 141.785L64.4065 167.439C65.4638 168.046 66.3339 167.594 66.5872 166.446L22.2795 140.814Z" fill="#06033E"/>
<path d="M50.4748 153.658L23.7778 138.221C23.3373 137.967 22.9849 137.283 22.9849 136.698C22.9849 136.114 23.3373 135.838 23.7778 136.092L50.4748 151.528C50.9153 151.782 51.2678 152.466 51.2678 153.051C51.2788 153.636 50.9153 153.912 50.4748 153.658Z" fill="#D4ECFF"/>
<path d="M64.3957 197.508L20.033 171.854C18.7774 171.126 17.7642 169.184 17.7642 167.517V162.486C17.7642 160.809 18.7774 160.047 20.033 160.765L64.3957 186.419C65.6513 187.147 66.6646 189.089 66.6646 190.755V195.787C66.6646 197.453 65.6513 198.225 64.3957 197.508Z" fill="#173D7A"/>
<path opacity="0.3" d="M22.2795 170.882C21.0239 170.154 20.0107 168.212 20.0107 166.546V161.514C20.0107 161.249 20.0437 161.007 20.0988 160.797L20.0437 160.764C18.7882 160.036 17.7749 160.808 17.7749 162.485V167.517C17.7749 169.194 18.7882 171.136 20.0437 171.853L64.4065 197.507C65.4638 198.114 66.3339 197.662 66.5872 196.514L22.2795 170.882Z" fill="#06033E"/>
<path d="M50.4748 183.726L23.7778 168.289C23.3373 168.035 22.9849 167.351 22.9849 166.766C22.9849 166.182 23.3373 165.906 23.7778 166.159L50.4748 181.596C50.9153 181.85 51.2678 182.534 51.2678 183.119C51.2788 183.704 50.9153 183.98 50.4748 183.726Z" fill="#E44C4C"/>
<path d="M64.3957 226.98L20.033 201.326C18.7774 200.598 17.7642 198.656 17.7642 196.989V191.958C17.7642 190.281 18.7774 189.519 20.033 190.237L64.3957 215.891C65.6513 216.619 66.6646 218.561 66.6646 220.227V225.259C66.6646 226.936 65.6513 227.697 64.3957 226.98Z" fill="#173D7A"/>
<path opacity="0.3" d="M22.2795 200.354C21.0239 199.626 20.0107 197.684 20.0107 196.018V190.986C20.0107 190.721 20.0437 190.479 20.0988 190.269L20.0437 190.236C18.7882 189.508 17.7749 190.28 17.7749 191.957V196.989C17.7749 198.666 18.7882 200.608 20.0437 201.325L64.4065 226.979C65.4638 227.586 66.3339 227.134 66.5872 225.986L22.2795 200.354Z" fill="#06033E"/>
<path d="M50.4748 213.198L23.7778 197.761C23.3373 197.507 22.9849 196.823 22.9849 196.238C22.9849 195.654 23.3373 195.378 23.7778 195.631L50.4748 211.068C50.9153 211.322 51.2678 212.006 51.2678 212.591C51.2788 213.176 50.9153 213.452 50.4748 213.198Z" fill="#D4ECFF"/>
<path opacity="0.5" d="M10.7051 61.9756L15.3418 64.6569V83.4258L10.7051 80.7446V61.9756Z" fill="#173D7A"/>
<path opacity="0.5" d="M10.7051 91.6794L15.3418 94.3607V113.13L10.7051 110.448V91.6794Z" fill="#173D7A"/>
<path opacity="0.5" d="M10.7051 121.372L15.3418 124.054V142.834L10.7051 140.152V121.372Z" fill="#173D7A"/>
<path opacity="0.5" d="M10.7051 151.076L15.3418 153.757V172.537L10.7051 169.856V151.076Z" fill="#173D7A"/>
<path opacity="0.5" d="M10.7051 180.78L15.3418 183.461V202.241L10.7051 199.549V180.78Z" fill="#173D7A"/>
<path d="M55.7395 96.1923C55.7395 96.7882 55.321 97.0309 54.8034 96.733C54.2857 96.4351 53.8672 95.7068 53.8672 95.1C53.8672 94.5041 54.2857 94.2614 54.8034 94.5593C55.321 94.8682 55.7395 95.5965 55.7395 96.1923Z" fill="#D4ECFF"/>
<path d="M59.716 98.4986C59.716 99.0944 59.2976 99.3372 58.7799 99.0393C58.2623 98.7413 57.8438 98.0131 57.8438 97.4062C57.8438 96.7993 58.2623 96.5676 58.7799 96.8655C59.2976 97.1745 59.716 97.9028 59.716 98.4986Z" fill="#E44C4C"/>
<path d="M63.4425 101.396C63.8112 101.183 63.8117 100.492 63.4436 99.8539C63.0756 99.2153 62.4783 98.8706 62.1096 99.0839C61.7408 99.2973 61.7403 99.9879 62.1084 100.626C62.4764 101.265 63.0737 101.61 63.4425 101.396Z" fill="#D4ECFF"/>
<path d="M55.7395 125.885C55.7395 126.481 55.321 126.724 54.8034 126.426C54.2857 126.128 53.8672 125.4 53.8672 124.793C53.8672 124.197 54.2857 123.954 54.8034 124.252C55.321 124.55 55.7395 125.278 55.7395 125.885Z" fill="#E44C4C"/>
<path d="M59.716 128.18C59.716 128.776 59.2976 129.019 58.7799 128.721C58.2623 128.423 57.8438 127.695 57.8438 127.088C57.8438 126.481 58.2623 126.249 58.7799 126.547C59.2976 126.856 59.716 127.584 59.716 128.18Z" fill="#D4ECFF"/>
<path d="M63.7024 130.486C63.7024 131.082 63.2839 131.325 62.7662 131.027C62.2486 130.729 61.8301 130.001 61.8301 129.394C61.8301 128.787 62.2486 128.555 62.7662 128.853C63.2839 129.162 63.7024 129.891 63.7024 130.486Z" fill="white"/>
<path d="M55.7395 155.799C55.7395 156.394 55.321 156.637 54.8034 156.339C54.2857 156.041 53.8672 155.313 53.8672 154.706C53.8672 154.099 54.2857 153.868 54.8034 154.166C55.321 154.463 55.7395 155.192 55.7395 155.799Z" fill="white"/>
<path d="M59.716 158.094C59.716 158.689 59.2976 158.932 58.7799 158.634C58.2623 158.336 57.8438 157.608 57.8438 157.001C57.8438 156.405 58.2623 156.163 58.7799 156.461C59.2976 156.77 59.716 157.498 59.716 158.094Z" fill="#E44C4C"/>
<path d="M63.7024 160.4C63.7024 160.996 63.2839 161.238 62.7662 160.94C62.2486 160.643 61.8301 159.914 61.8301 159.307C61.8301 158.712 62.2486 158.469 62.7662 158.767C63.2839 159.065 63.7024 159.804 63.7024 160.4Z" fill="white"/>
<path d="M55.7395 185.271C55.7395 185.866 55.321 186.109 54.8034 185.811C54.2857 185.513 53.8672 184.785 53.8672 184.178C53.8672 183.582 54.2857 183.34 54.8034 183.638C55.321 183.935 55.7395 184.664 55.7395 185.271Z" fill="white"/>
<path d="M59.716 187.577C59.716 188.173 59.2976 188.415 58.7799 188.117C58.2623 187.819 57.8438 187.091 57.8438 186.484C57.8438 185.877 58.2623 185.646 58.7799 185.944C59.2976 186.242 59.716 186.97 59.716 187.577Z" fill="#D4ECFF"/>
<path d="M63.7024 189.872C63.7024 190.468 63.2839 190.71 62.7662 190.412C62.2486 190.115 61.8301 189.386 61.8301 188.779C61.8301 188.173 62.2486 187.941 62.7662 188.239C63.2839 188.548 63.7024 189.276 63.7024 189.872Z" fill="#D4ECFF"/>
<path d="M55.7395 215.151C55.7395 215.747 55.321 215.989 54.8034 215.692C54.2857 215.394 53.8672 214.665 53.8672 214.059C53.8672 213.463 54.2857 213.22 54.8034 213.518C55.321 213.816 55.7395 214.544 55.7395 215.151Z" fill="white"/>
<path d="M59.716 217.446C59.716 218.042 59.2976 218.285 58.7799 217.987C58.2623 217.689 57.8438 216.961 57.8438 216.354C57.8438 215.747 58.2623 215.515 58.7799 215.813C59.2976 216.122 59.716 216.85 59.716 217.446Z" fill="#E44C4C"/>
<path d="M63.4498 220.356C63.8185 220.143 63.819 219.452 63.451 218.813C63.0829 218.175 62.4856 217.83 62.1169 218.043C61.7481 218.257 61.7476 218.947 62.1157 219.586C62.4837 220.225 63.0811 220.569 63.4498 220.356Z" fill="#D4ECFF"/>
<path d="M84.0669 228.348V95.4531L84.3422 95.2986L139.785 63.2335V196.128L139.509 196.283L84.0669 228.348ZM85.1683 96.082V226.439L138.683 195.488V65.1314L85.1683 96.082Z" fill="#173D7A"/>
<path d="M125.379 123.016L100.521 137.394C98.8473 138.365 97.4927 137.338 97.4927 135.099V121.295C97.4927 119.066 98.8473 116.473 100.521 115.502L125.379 101.125C127.053 100.154 128.408 101.18 128.408 103.42V117.223C128.408 119.463 127.053 122.056 125.379 123.016Z" fill="#173D7A"/>
<path d="M125.985 100.871C126.128 101.257 126.205 101.72 126.205 102.25V116.054C126.205 118.283 124.85 120.876 123.176 121.847L98.3186 136.224C98.1094 136.345 97.9111 136.434 97.7129 136.489C98.1644 137.703 99.2438 138.133 100.51 137.394L125.368 123.016C127.042 122.045 128.397 119.463 128.397 117.223V103.42C128.408 101.467 127.362 100.44 125.985 100.871Z" fill="#5793CE"/>
<path d="M120.841 114.708C121.304 114.443 121.678 114.653 121.678 115.193V118.338C121.678 118.868 121.304 119.519 120.841 119.784C120.379 120.048 120.004 119.839 120.004 119.298V116.153C120.015 115.613 120.379 114.973 120.841 114.708Z" fill="white"/>
<path d="M117.273 117.157C117.736 116.893 118.11 117.102 118.11 117.643V120.39C118.11 120.92 117.736 121.571 117.273 121.836C116.811 122.101 116.436 121.891 116.436 121.35V118.603C116.447 118.073 116.822 117.422 117.273 117.157Z" fill="#E44C4C"/>
<path d="M113.716 116.153C114.179 115.888 114.553 116.098 114.553 116.639V122.465C114.553 122.994 114.179 123.645 113.716 123.91C113.253 124.175 112.879 123.965 112.879 123.425V117.599C112.879 117.069 113.253 116.418 113.716 116.153Z" fill="#E44C4C"/>
<path d="M110.147 114.862C110.61 114.598 110.984 114.807 110.984 115.348V124.528C110.984 125.058 110.61 125.709 110.147 125.974C109.685 126.239 109.31 126.029 109.31 125.488V116.308C109.31 115.767 109.685 115.127 110.147 114.862Z" fill="#E44C4C"/>
<path d="M106.579 117.886C107.042 117.621 107.416 117.83 107.416 118.371V126.592C107.416 127.121 107.042 127.772 106.579 128.037C106.117 128.302 105.742 128.092 105.742 127.552V119.331C105.742 118.801 106.117 118.15 106.579 117.886Z" fill="#E44C4C"/>
<path d="M103.011 123.701C103.473 123.436 103.848 123.645 103.848 124.186V128.644C103.848 129.174 103.473 129.825 103.011 130.089C102.548 130.354 102.174 130.145 102.174 129.604V125.146C102.185 124.616 102.559 123.965 103.011 123.701Z" fill="white"/>
<path d="M120.026 113.119C120.026 113.637 120.39 113.858 120.841 113.593C121.293 113.329 121.656 112.7 121.656 112.17C121.656 111.651 121.293 111.431 120.841 111.695C120.39 111.96 120.026 112.589 120.026 113.119Z" fill="#E44C4C"/>
<path d="M120.026 110.162C120.026 110.68 120.39 110.901 120.841 110.636C121.293 110.371 121.656 109.742 121.656 109.213C121.656 108.683 121.293 108.473 120.841 108.738C120.39 109.003 120.026 109.632 120.026 110.162Z" fill="white"/>
<path d="M257.877 269.529L194.064 232.62C191.729 231.263 192.016 228.902 194.714 227.346L262.349 188.131C265.047 186.564 269.133 186.399 271.468 187.756L335.281 224.665C337.616 226.022 337.329 228.383 334.631 229.939L266.996 269.154C264.298 270.721 260.212 270.887 257.877 269.529Z" fill="#ECF1F9"/>
<path d="M262.48 84.9486C262.48 84.9486 227.446 88.2919 206.344 89.9139L262.304 249.588L336.326 206.82C336.337 206.809 336.348 206.809 336.359 206.798L336.491 206.721V206.71C337.417 206.125 338 204.845 338 203.046V46.9803C338 45.3362 337.505 43.5597 336.712 42.0039L262.48 84.9486Z" fill="#396CAA"/>
<path d="M333.43 38.2082L268.328 0.548843C267.194 -0.102169 266.159 -0.157341 265.366 0.295057L191.046 43.2508L194.548 56.2379L213.183 109.411L216.697 111.441L336.734 42.0039C335.897 40.3599 334.729 38.9585 333.43 38.2082Z" fill="#D4ECFF"/>
<path d="M259.165 249.445L194.064 211.785C191.53 210.318 189.482 206.39 189.482 203.013V46.9471C189.482 43.5707 191.53 42.0148 194.064 43.4713L259.165 81.1307C261.698 82.5982 263.747 86.5264 263.747 89.9028V245.98C263.747 249.356 261.698 250.912 259.165 249.445Z" fill="#97BDE3"/>
<path d="M260.564 80.3363L195.462 42.677C193.997 41.8274 192.698 42.0039 191.861 42.9418C192.522 42.8425 193.271 42.997 194.075 43.4604L259.176 81.1198C261.709 82.5873 263.758 86.5154 263.758 89.8919V245.969C263.758 247.393 263.394 248.485 262.777 249.18C264.187 248.959 265.156 247.503 265.156 245.186V89.1195C265.145 85.732 263.097 81.8039 260.564 80.3363Z" fill="white" fill-opacity="0.3"/>
<path d="M255.068 240.044L198.16 207.129C195.947 205.849 194.151 202.418 194.151 199.46V54.5166C194.151 51.5595 195.947 50.2023 198.16 51.4822L255.068 84.3969C257.281 85.6769 259.077 89.1085 259.077 92.0656V237.009C259.077 239.967 257.281 241.324 255.068 240.044Z" fill="#06033E"/>
<path d="M255.068 240.044L198.16 207.129C195.947 205.849 194.151 202.418 194.151 199.46V54.5166C194.151 51.5595 195.947 50.2023 198.16 51.4822L255.068 84.3969C257.281 85.6769 259.077 89.1085 259.077 92.0656V237.009C259.077 239.967 257.281 241.324 255.068 240.044Z" fill="#06033E"/>
<path d="M255.068 240.044L198.16 207.129C195.947 205.849 194.151 202.418 194.151 199.46V54.5166C194.151 51.5595 195.947 50.2023 198.16 51.4822L255.068 84.3969C257.281 85.6769 259.077 89.1085 259.077 92.0656V237.009C259.077 239.967 257.281 241.324 255.068 240.044Z" fill="#173D7A"/>
<path d="M256.929 238.951L200.022 206.037C197.808 204.757 196.013 201.325 196.013 198.368V53.4131C196.013 52.409 196.222 51.5925 196.585 50.9967C195.154 50.9856 194.151 52.2987 194.151 54.5165V199.46C194.151 202.418 195.947 205.849 198.16 207.129L255.068 240.044C256.521 240.882 257.799 240.584 258.504 239.426C258.019 239.426 257.491 239.271 256.929 238.951Z" fill="#396CAA"/>
<path d="M255.068 173.497L233.91 161.261L200.176 180.769L259.066 214.831V181.155C259.077 178.22 257.281 174.777 255.068 173.497Z" fill="#173D7A"/>
<path d="M255.068 143.804L233.91 131.568L200.176 151.076L259.066 185.138V151.462C259.077 148.516 257.281 145.084 255.068 143.804Z" fill="#173D7A"/>
<path d="M255.068 114.101L233.91 101.864L200.176 121.372L259.066 155.434V121.758C259.077 118.812 257.281 115.381 255.068 114.101Z" fill="#173D7A"/>
<path d="M255.068 84.397L233.91 72.1601L200.176 91.6684L259.066 125.731V92.0546C259.077 89.1085 257.281 85.6769 255.068 84.397Z" fill="#173D7A"/>
<path d="M255.068 84.3969L208.238 57.3082L200.176 61.9756L259.066 96.0379V92.0656C259.077 89.1085 257.281 85.6769 255.068 84.3969Z" fill="#173D7A"/>
<path d="M259.077 96.0378L200.188 61.9756V80.7445L259.077 114.807V96.0378Z" fill="#5793CE"/>
<path d="M259.077 125.742L200.188 91.6794V110.448L259.077 144.511V125.742Z" fill="#5793CE"/>
<path d="M259.077 155.446L200.188 121.372V140.152L259.077 174.214V155.446Z" fill="#5793CE"/>
<path d="M259.077 185.149L200.188 151.076V169.856L259.077 203.918V185.149Z" fill="#5793CE"/>
<path d="M259.077 214.842L200.188 180.78V199.549L259.077 233.622V214.842Z" fill="#5793CE"/>
<path d="M253.878 108.121L209.515 82.4666C208.26 81.7383 207.247 79.7963 207.247 78.1302V73.0986C207.247 71.4214 208.26 70.6601 209.515 71.3773L253.878 97.0316C255.134 97.7598 256.147 99.7018 256.147 101.368V106.4C256.147 108.077 255.134 108.849 253.878 108.121Z" fill="#173D7A"/>
<path opacity="0.3" d="M211.763 81.4949C210.507 80.7667 209.494 78.8247 209.494 77.1585V72.127C209.494 71.8622 209.527 71.6194 209.582 71.4098L209.527 71.3767C208.272 70.6484 207.258 71.4208 207.258 73.098V78.1295C207.258 79.8067 208.272 81.7487 209.527 82.4659L253.89 108.12C254.947 108.727 255.817 108.275 256.071 107.127L211.763 81.4949Z" fill="#06033E"/>
<path d="M239.957 94.3387L213.26 78.902C212.82 78.6482 212.467 77.9641 212.467 77.3793C212.467 76.7945 212.82 76.5186 213.26 76.7724L239.957 92.2091C240.398 92.4629 240.75 93.147 240.75 93.7318C240.761 94.3276 240.398 94.5925 239.957 94.3387Z" fill="white"/>
<path d="M253.878 137.636L209.515 111.982C208.26 111.254 207.247 109.312 207.247 107.646V102.614C207.247 100.937 208.26 100.176 209.515 100.893L253.878 126.547C255.134 127.275 256.147 129.217 256.147 130.884V135.915C256.147 137.592 255.134 138.365 253.878 137.636Z" fill="#173D7A"/>
<path opacity="0.3" d="M211.763 111.022C210.507 110.294 209.494 108.352 209.494 106.686V101.654C209.494 101.39 209.527 101.147 209.582 100.937L209.527 100.904C208.272 100.176 207.258 100.948 207.258 102.625V107.635C207.258 109.312 208.272 111.254 209.527 111.971L253.89 137.626C254.947 138.232 255.817 137.78 256.071 136.633L211.763 111.022Z" fill="#06033E"/>
<path d="M239.957 123.866L213.26 108.429C212.82 108.175 212.467 107.491 212.467 106.906C212.467 106.322 212.82 106.046 213.26 106.3L239.957 121.736C240.398 121.99 240.75 122.674 240.75 123.259C240.761 123.844 240.398 124.12 239.957 123.866Z" fill="white"/>
<path d="M253.878 167.428L209.515 141.774C208.26 141.046 207.247 139.104 207.247 137.438V132.406C207.247 130.729 208.26 129.968 209.515 130.685L253.878 156.339C255.134 157.067 256.147 159.009 256.147 160.675V165.707C256.147 167.384 255.134 168.157 253.878 167.428Z" fill="#173D7A"/>
<path opacity="0.3" d="M211.763 140.814C210.507 140.086 209.494 138.144 209.494 136.478V131.446C209.494 131.181 209.527 130.939 209.582 130.729L209.527 130.696C208.272 129.968 207.258 130.74 207.258 132.417V137.449C207.258 139.126 208.272 141.068 209.527 141.785L253.89 167.439C254.947 168.046 255.817 167.594 256.071 166.446L211.763 140.814Z" fill="#06033E"/>
<path d="M239.957 153.658L213.26 138.221C212.82 137.967 212.467 137.283 212.467 136.698C212.467 136.114 212.82 135.838 213.26 136.092L239.957 151.528C240.398 151.782 240.75 152.466 240.75 153.051C240.761 153.636 240.398 153.912 239.957 153.658Z" fill="#D4ECFF"/>
<path d="M253.878 197.508L209.515 171.854C208.26 171.126 207.247 169.184 207.247 167.517V162.486C207.247 160.809 208.26 160.047 209.515 160.765L253.878 186.419C255.134 187.147 256.147 189.089 256.147 190.755V195.787C256.147 197.453 255.134 198.225 253.878 197.508Z" fill="#173D7A"/>
<path opacity="0.3" d="M211.763 170.882C210.507 170.154 209.494 168.212 209.494 166.546V161.514C209.494 161.249 209.527 161.007 209.582 160.797L209.527 160.764C208.272 160.036 207.258 160.808 207.258 162.485V167.517C207.258 169.194 208.272 171.136 209.527 171.853L253.89 197.507C254.947 198.114 255.817 197.662 256.071 196.514L211.763 170.882Z" fill="#06033E"/>
<path d="M239.957 183.726L213.26 168.289C212.82 168.035 212.467 167.351 212.467 166.766C212.467 166.182 212.82 165.906 213.26 166.159L239.957 181.596C240.398 181.85 240.75 182.534 240.75 183.119C240.761 183.704 240.398 183.98 239.957 183.726Z" fill="#E44C4C"/>
<path d="M253.878 226.98L209.515 201.326C208.26 200.598 207.247 198.656 207.247 196.989V191.958C207.247 190.281 208.26 189.519 209.515 190.237L253.878 215.891C255.134 216.619 256.147 218.561 256.147 220.227V225.259C256.147 226.936 255.134 227.697 253.878 226.98Z" fill="#173D7A"/>
<path opacity="0.3" d="M211.763 200.354C210.507 199.626 209.494 197.684 209.494 196.018V190.986C209.494 190.721 209.527 190.479 209.582 190.269L209.527 190.236C208.272 189.508 207.258 190.28 207.258 191.957V196.989C207.258 198.666 208.272 200.608 209.527 201.325L253.89 226.979C254.947 227.586 255.817 227.134 256.071 225.986L211.763 200.354Z" fill="#06033E"/>
<path d="M239.957 213.198L213.26 197.761C212.82 197.507 212.467 196.823 212.467 196.238C212.467 195.654 212.82 195.378 213.26 195.631L239.957 211.068C240.398 211.322 240.75 212.006 240.75 212.591C240.761 213.176 240.398 213.452 239.957 213.198Z" fill="#D4ECFF"/>
<path opacity="0.5" d="M200.187 61.9756L204.824 64.6569V83.4258L200.187 80.7446V61.9756Z" fill="#173D7A"/>
<path opacity="0.5" d="M200.187 91.6794L204.824 94.3607V113.13L200.187 110.448V91.6794Z" fill="#173D7A"/>
<path opacity="0.5" d="M200.187 121.372L204.824 124.054V142.834L200.187 140.152V121.372Z" fill="#173D7A"/>
<path opacity="0.5" d="M200.187 151.076L204.824 153.757V172.537L200.187 169.856V151.076Z" fill="#173D7A"/>
<path opacity="0.5" d="M200.187 180.78L204.824 183.461V202.241L200.187 199.549V180.78Z" fill="#173D7A"/>
<path d="M245.222 96.1923C245.222 96.7882 244.803 97.0309 244.286 96.733C243.768 96.4351 243.35 95.7068 243.35 95.1C243.35 94.5041 243.768 94.2614 244.286 94.5593C244.803 94.8682 245.222 95.5965 245.222 96.1923Z" fill="#D4ECFF"/>
<path d="M249.198 98.4986C249.198 99.0944 248.779 99.3372 248.262 99.0393C247.744 98.7413 247.326 98.0131 247.326 97.4062C247.326 96.7993 247.744 96.5676 248.262 96.8655C248.779 97.1745 249.198 97.9028 249.198 98.4986Z" fill="#E44C4C"/>
<path d="M252.924 101.396C253.293 101.183 253.294 100.492 252.926 99.8539C252.557 99.2153 251.96 98.8706 251.591 99.0839C251.223 99.2973 251.222 99.9879 251.59 100.626C251.958 101.265 252.556 101.61 252.924 101.396Z" fill="#D4ECFF"/>
<path d="M245.222 125.885C245.222 126.481 244.803 126.724 244.286 126.426C243.768 126.128 243.35 125.4 243.35 124.793C243.35 124.197 243.768 123.954 244.286 124.252C244.803 124.55 245.222 125.278 245.222 125.885Z" fill="#E44C4C"/>
<path d="M249.198 128.18C249.198 128.776 248.779 129.019 248.262 128.721C247.744 128.423 247.326 127.695 247.326 127.088C247.326 126.481 247.744 126.249 248.262 126.547C248.779 126.856 249.198 127.584 249.198 128.18Z" fill="#D4ECFF"/>
<path d="M253.184 130.486C253.184 131.082 252.766 131.325 252.248 131.027C251.731 130.729 251.312 130.001 251.312 129.394C251.312 128.787 251.731 128.555 252.248 128.853C252.766 129.162 253.184 129.891 253.184 130.486Z" fill="white"/>
<path d="M245.222 155.799C245.222 156.394 244.803 156.637 244.286 156.339C243.768 156.041 243.35 155.313 243.35 154.706C243.35 154.099 243.768 153.868 244.286 154.166C244.803 154.463 245.222 155.192 245.222 155.799Z" fill="white"/>
<path d="M249.198 158.094C249.198 158.689 248.779 158.932 248.262 158.634C247.744 158.336 247.326 157.608 247.326 157.001C247.326 156.405 247.744 156.163 248.262 156.461C248.779 156.77 249.198 157.498 249.198 158.094Z" fill="#E44C4C"/>
<path d="M253.184 160.4C253.184 160.996 252.766 161.238 252.248 160.94C251.731 160.643 251.312 159.914 251.312 159.307C251.312 158.712 251.731 158.469 252.248 158.767C252.766 159.065 253.184 159.804 253.184 160.4Z" fill="white"/>
<path d="M245.222 185.271C245.222 185.866 244.803 186.109 244.286 185.811C243.768 185.513 243.35 184.785 243.35 184.178C243.35 183.582 243.768 183.34 244.286 183.638C244.803 183.935 245.222 184.664 245.222 185.271Z" fill="white"/>
<path d="M249.198 187.577C249.198 188.173 248.779 188.415 248.262 188.117C247.744 187.819 247.326 187.091 247.326 186.484C247.326 185.877 247.744 185.646 248.262 185.944C248.779 186.242 249.198 186.97 249.198 187.577Z" fill="#D4ECFF"/>
<path d="M253.184 189.872C253.184 190.468 252.766 190.71 252.248 190.412C251.731 190.115 251.312 189.386 251.312 188.779C251.312 188.173 251.731 187.941 252.248 188.239C252.766 188.548 253.184 189.276 253.184 189.872Z" fill="#D4ECFF"/>
<path d="M245.222 215.151C245.222 215.747 244.803 215.989 244.286 215.692C243.768 215.394 243.35 214.665 243.35 214.059C243.35 213.463 243.768 213.22 244.286 213.518C244.803 213.816 245.222 214.544 245.222 215.151Z" fill="white"/>
<path d="M249.198 217.446C249.198 218.042 248.779 218.285 248.262 217.987C247.744 217.689 247.326 216.961 247.326 216.354C247.326 215.747 247.744 215.515 248.262 215.813C248.779 216.122 249.198 216.85 249.198 217.446Z" fill="#E44C4C"/>
<path d="M252.931 220.356C253.3 220.143 253.3 219.452 252.932 218.813C252.564 218.175 251.967 217.83 251.598 218.043C251.23 218.257 251.229 218.947 251.597 219.586C251.965 220.225 252.563 220.569 252.931 220.356Z" fill="#D4ECFF"/>
<path d="M273.549 228.348V95.4531L273.824 95.2986L329.267 63.2335V196.128L328.991 196.283L273.549 228.348ZM274.65 96.082V226.439L328.165 195.488V65.1314L274.65 96.082Z" fill="#173D7A"/>
<path d="M314.861 123.016L290.003 137.394C288.329 138.365 286.975 137.338 286.975 135.099V121.295C286.975 119.066 288.329 116.473 290.003 115.502L314.861 101.125C316.535 100.154 317.89 101.18 317.89 103.42V117.223C317.89 119.463 316.535 122.056 314.861 123.016Z" fill="#173D7A"/>
<path d="M315.467 100.871C315.61 101.257 315.687 101.72 315.687 102.25V116.054C315.687 118.283 314.332 120.876 312.658 121.847L287.801 136.224C287.591 136.345 287.393 136.434 287.195 136.489C287.646 137.703 288.726 138.133 289.992 137.394L314.85 123.016C316.524 122.045 317.879 119.463 317.879 117.223V103.42C317.89 101.467 316.843 100.44 315.467 100.871Z" fill="#5793CE"/>
<path d="M310.324 114.708C310.786 114.443 311.161 114.653 311.161 115.193V118.338C311.161 118.868 310.786 119.519 310.324 119.784C309.861 120.048 309.487 119.839 309.487 119.298V116.153C309.498 115.613 309.861 114.973 310.324 114.708Z" fill="white"/>
<path d="M306.756 117.158C307.218 116.893 307.593 117.102 307.593 117.643V120.39C307.593 120.92 307.218 121.571 306.756 121.836C306.293 122.101 305.918 121.891 305.918 121.35V118.603C305.929 118.073 306.304 117.422 306.756 117.158Z" fill="#E44C4C"/>
<path d="M303.198 116.153C303.661 115.889 304.035 116.098 304.035 116.639V122.465C304.035 122.994 303.661 123.645 303.198 123.91C302.736 124.175 302.361 123.965 302.361 123.425V117.599C302.361 117.069 302.736 116.418 303.198 116.153Z" fill="#E44C4C"/>
<path d="M299.63 114.862C300.092 114.598 300.467 114.807 300.467 115.348V124.528C300.467 125.058 300.092 125.709 299.63 125.974C299.167 126.239 298.792 126.029 298.792 125.488V116.308C298.792 115.767 299.167 115.127 299.63 114.862Z" fill="#E44C4C"/>
<path d="M296.062 117.886C296.524 117.621 296.899 117.83 296.899 118.371V126.592C296.899 127.121 296.524 127.772 296.062 128.037C295.599 128.302 295.225 128.092 295.225 127.552V119.331C295.225 118.802 295.599 118.15 296.062 117.886Z" fill="#E44C4C"/>
<path d="M292.493 123.701C292.955 123.436 293.33 123.645 293.33 124.186V128.644C293.33 129.174 292.955 129.825 292.493 130.089C292.03 130.354 291.656 130.145 291.656 129.604V125.146C291.667 124.616 292.041 123.965 292.493 123.701Z" fill="white"/>
<path d="M309.509 113.119C309.509 113.637 309.872 113.858 310.324 113.593C310.775 113.329 311.139 112.7 311.139 112.17C311.139 111.651 310.775 111.431 310.324 111.695C309.872 111.96 309.509 112.589 309.509 113.119Z" fill="#E44C4C"/>
<path d="M309.509 110.162C309.509 110.68 309.872 110.901 310.324 110.636C310.775 110.371 311.139 109.742 311.139 109.213C311.139 108.683 310.775 108.473 310.324 108.738C309.872 109.003 309.509 109.632 309.509 110.162Z" fill="white"/>
<path d="M161.584 359.082L97.7707 322.173C95.4359 320.815 95.7222 318.454 98.4206 316.898L166.055 277.683C168.753 276.116 172.839 275.951 175.174 277.308L238.987 314.217C241.322 315.574 241.036 317.936 238.337 319.491L170.703 358.707C168.004 360.273 163.918 360.439 161.584 359.082Z" fill="#ECF1F9"/>
<path d="M166.187 174.501C166.187 174.501 131.153 177.844 110.051 179.466L166.011 339.14L240.033 296.372C240.044 296.361 240.055 296.361 240.066 296.35L240.198 296.273V296.262C241.124 295.677 241.707 294.397 241.707 292.599V136.532C241.707 134.888 241.212 133.112 240.419 131.556L166.187 174.501Z" fill="#396CAA"/>
<path d="M237.137 127.76L172.035 90.101C170.901 89.45 169.866 89.3948 169.073 89.8472L94.7529 132.803L98.2552 145.79L116.89 198.963L120.404 200.994L240.441 131.556C239.604 129.912 238.436 128.511 237.137 127.76Z" fill="#D4ECFF"/>
<path d="M162.872 338.997L97.7706 301.338C95.2375 299.87 93.189 295.942 93.189 292.565V136.499C93.189 133.123 95.2375 131.567 97.7706 133.024L162.872 170.683C165.405 172.15 167.454 176.079 167.454 179.455V335.532C167.454 338.909 165.405 340.464 162.872 338.997Z" fill="#97BDE3"/>
<path d="M164.27 169.889L99.1689 132.229C97.704 131.38 96.4044 131.556 95.5674 132.494C96.2282 132.395 96.9771 132.549 97.7811 133.013L162.883 170.672C165.416 172.139 167.464 176.068 167.464 179.444V335.521C167.464 336.945 167.101 338.037 166.484 338.732C167.894 338.512 168.863 337.055 168.863 334.738V178.672C168.852 175.284 166.803 171.356 164.27 169.889Z" fill="white" fill-opacity="0.3"/>
<path d="M158.775 329.596L101.867 296.681C99.6536 295.401 97.8584 291.97 97.8584 289.013V144.069C97.8584 141.112 99.6536 139.754 101.867 141.034L158.775 173.949C160.988 175.229 162.784 178.661 162.784 181.618V326.562C162.784 329.519 160.988 330.876 158.775 329.596Z" fill="#06033E"/>
<path d="M158.775 329.596L101.867 296.681C99.6536 295.401 97.8584 291.97 97.8584 289.013V144.069C97.8584 141.112 99.6536 139.754 101.867 141.034L158.775 173.949C160.988 175.229 162.784 178.661 162.784 181.618V326.562C162.784 329.519 160.988 330.876 158.775 329.596Z" fill="#06033E"/>
<path d="M158.775 329.596L101.867 296.681C99.6536 295.401 97.8584 291.97 97.8584 289.013V144.069C97.8584 141.112 99.6536 139.754 101.867 141.034L158.775 173.949C160.988 175.229 162.784 178.661 162.784 181.618V326.562C162.784 329.519 160.988 330.876 158.775 329.596Z" fill="#173D7A"/>
<path d="M160.636 328.504L103.729 295.589C101.515 294.309 99.7197 290.877 99.7197 287.92V142.965C99.7197 141.961 99.9289 141.145 100.292 140.549C98.8606 140.538 97.8584 141.851 97.8584 144.069V289.013C97.8584 291.97 99.6536 295.401 101.867 296.681L158.775 329.596C160.228 330.435 161.506 330.137 162.211 328.978C161.726 328.978 161.198 328.824 160.636 328.504Z" fill="#396CAA"/>
<path d="M158.775 263.05L137.617 250.813L103.883 270.321L162.773 304.383V270.707C162.784 267.772 160.988 264.33 158.775 263.05Z" fill="#173D7A"/>
<path d="M158.775 233.357L137.617 221.12L103.883 240.628L162.773 274.69V241.014C162.784 238.068 160.988 234.637 158.775 233.357Z" fill="#173D7A"/>
<path d="M158.775 203.653L137.617 191.416L103.883 210.924L162.773 244.987V211.311C162.784 208.365 160.988 204.933 158.775 203.653Z" fill="#173D7A"/>
<path d="M158.775 173.949L137.617 161.712L103.883 181.221L162.773 215.283V181.607C162.784 178.661 160.988 175.229 158.775 173.949Z" fill="#173D7A"/>
<path d="M158.775 173.949L111.945 146.86L103.883 151.528L162.773 185.59V181.618C162.784 178.661 160.988 175.229 158.775 173.949Z" fill="#173D7A"/>
<path d="M162.784 185.59L103.894 151.528V170.297L162.784 204.359V185.59Z" fill="#5793CE"/>
<path d="M162.784 215.294L103.894 181.232V200.001L162.784 234.063V215.294Z" fill="#5793CE"/>
<path d="M162.784 244.998L103.894 210.924V229.704L162.784 263.767V244.998Z" fill="#5793CE"/>
<path d="M162.784 274.701L103.894 240.628V259.408L162.784 293.47V274.701Z" fill="#5793CE"/>
<path d="M162.784 304.394L103.894 270.332V289.101L162.784 323.174V304.394Z" fill="#5793CE"/>
<path d="M157.585 197.673L113.222 172.019C111.966 171.29 110.953 169.348 110.953 167.682V162.651C110.953 160.974 111.966 160.212 113.222 160.929L157.585 186.584C158.84 187.312 159.854 189.254 159.854 190.92V195.952C159.854 197.629 158.84 198.401 157.585 197.673Z" fill="#173D7A"/>
<path opacity="0.3" d="M115.469 171.047C114.213 170.319 113.2 168.377 113.2 166.711V161.679C113.2 161.414 113.233 161.172 113.288 160.962L113.233 160.929C111.978 160.201 110.964 160.973 110.964 162.65V167.682C110.964 169.359 111.978 171.301 113.233 172.018L157.596 197.672C158.653 198.279 159.523 197.827 159.777 196.679L115.469 171.047Z" fill="#06033E"/>
<path d="M143.664 183.891L116.967 168.454C116.526 168.2 116.174 167.516 116.174 166.931C116.174 166.347 116.526 166.071 116.967 166.325L143.664 181.761C144.104 182.015 144.457 182.699 144.457 183.284C144.468 183.88 144.104 184.145 143.664 183.891Z" fill="white"/>
<path d="M157.585 227.189L113.222 201.534C111.966 200.806 110.953 198.864 110.953 197.198V192.166C110.953 190.489 111.966 189.728 113.222 190.445L157.585 216.099C158.84 216.828 159.854 218.77 159.854 220.436V225.467C159.854 227.145 158.84 227.917 157.585 227.189Z" fill="#173D7A"/>
<path opacity="0.3" d="M115.469 200.575C114.213 199.846 113.2 197.904 113.2 196.238V191.207C113.2 190.942 113.233 190.699 113.288 190.489L113.233 190.456C111.978 189.728 110.964 190.5 110.964 192.178V197.187C110.964 198.864 111.978 200.806 113.233 201.523L157.596 227.178C158.653 227.785 159.523 227.332 159.777 226.185L115.469 200.575Z" fill="#06033E"/>
<path d="M143.664 213.418L116.967 197.981C116.526 197.728 116.174 197.043 116.174 196.459C116.174 195.874 116.526 195.598 116.967 195.852L143.664 211.288C144.104 211.542 144.457 212.226 144.457 212.811C144.468 213.396 144.104 213.672 143.664 213.418Z" fill="white"/>
<path d="M157.585 256.981L113.222 231.326C111.966 230.598 110.953 228.656 110.953 226.99V221.958C110.953 220.281 111.966 219.52 113.222 220.237L157.585 245.891C158.84 246.62 159.854 248.562 159.854 250.228V255.259C159.854 256.936 158.84 257.709 157.585 256.981Z" fill="#173D7A"/>
<path opacity="0.3" d="M115.469 230.366C114.213 229.638 113.2 227.696 113.2 226.03V220.998C113.2 220.734 113.233 220.491 113.288 220.281L113.233 220.248C111.978 219.52 110.964 220.292 110.964 221.969V227.001C110.964 228.678 111.978 230.62 113.233 231.337L157.596 256.992C158.653 257.599 159.523 257.146 159.777 255.999L115.469 230.366Z" fill="#06033E"/>
<path d="M143.664 243.21L116.967 227.773C116.526 227.52 116.174 226.835 116.174 226.251C116.174 225.666 116.526 225.39 116.967 225.644L143.664 241.08C144.104 241.334 144.457 242.018 144.457 242.603C144.468 243.188 144.104 243.464 143.664 243.21Z" fill="#D4ECFF"/>
<path d="M157.585 287.06L113.222 261.406C111.966 260.678 110.953 258.736 110.953 257.07V252.038C110.953 250.361 111.966 249.599 113.222 250.317L157.585 275.971C158.84 276.699 159.854 278.641 159.854 280.307V285.339C159.854 287.005 158.84 287.777 157.585 287.06Z" fill="#173D7A"/>
<path opacity="0.3" d="M115.469 260.434C114.213 259.706 113.2 257.764 113.2 256.098V251.066C113.2 250.802 113.233 250.559 113.288 250.349L113.233 250.316C111.978 249.588 110.964 250.36 110.964 252.037V257.069C110.964 258.746 111.978 260.688 113.233 261.405L157.596 287.06C158.653 287.667 159.523 287.214 159.777 286.067L115.469 260.434Z" fill="#06033E"/>
<path d="M143.664 273.278L116.967 257.841C116.526 257.588 116.174 256.903 116.174 256.319C116.174 255.734 116.526 255.458 116.967 255.712L143.664 271.148C144.104 271.402 144.457 272.086 144.457 272.671C144.468 273.256 144.104 273.532 143.664 273.278Z" fill="#E44C4C"/>
<path d="M157.585 316.532L113.222 290.878C111.966 290.15 110.953 288.208 110.953 286.542V281.51C110.953 279.833 111.966 279.072 113.222 279.789L157.585 305.443C158.84 306.171 159.854 308.113 159.854 309.779V314.811C159.854 316.488 158.84 317.249 157.585 316.532Z" fill="#173D7A"/>
<path opacity="0.3" d="M115.469 289.906C114.213 289.178 113.2 287.236 113.2 285.57V280.538C113.2 280.274 113.233 280.031 113.288 279.821L113.233 279.788C111.978 279.06 110.964 279.832 110.964 281.509V286.541C110.964 288.218 111.978 290.16 113.233 290.877L157.596 316.532C158.653 317.138 159.523 316.686 159.777 315.539L115.469 289.906Z" fill="#06033E"/>
<path d="M143.664 302.75L116.967 287.313C116.526 287.059 116.174 286.375 116.174 285.791C116.174 285.206 116.526 284.93 116.967 285.184L143.664 300.62C144.104 300.874 144.457 301.558 144.457 302.143C144.468 302.728 144.104 303.004 143.664 302.75Z" fill="#D4ECFF"/>
<path opacity="0.5" d="M103.894 151.528L108.531 154.209V172.978L103.894 170.297V151.528Z" fill="#173D7A"/>
<path opacity="0.5" d="M103.894 181.232L108.531 183.913V202.682L103.894 200.001V181.232Z" fill="#173D7A"/>
<path opacity="0.5" d="M103.894 210.924L108.531 213.606V232.386L103.894 229.704V210.924Z" fill="#173D7A"/>
<path opacity="0.5" d="M103.894 240.628L108.531 243.309V262.089L103.894 259.408V240.628Z" fill="#173D7A"/>
<path opacity="0.5" d="M103.894 270.332L108.531 273.013V291.793L103.894 289.101V270.332Z" fill="#173D7A"/>
<path d="M148.928 185.744C148.928 186.34 148.51 186.583 147.992 186.285C147.475 185.987 147.056 185.259 147.056 184.652C147.056 184.056 147.475 183.814 147.992 184.111C148.51 184.42 148.928 185.149 148.928 185.744Z" fill="#D4ECFF"/>
<path d="M152.905 188.051C152.905 188.647 152.486 188.889 151.968 188.591C151.451 188.294 151.032 187.565 151.032 186.958C151.032 186.352 151.451 186.12 151.968 186.418C152.486 186.727 152.905 187.455 152.905 188.051Z" fill="#E44C4C"/>
<path d="M156.631 190.949C157 190.735 157.001 190.045 156.633 189.406C156.265 188.768 155.667 188.423 155.299 188.636C154.93 188.849 154.929 189.54 155.297 190.179C155.665 190.817 156.263 191.162 156.631 190.949Z" fill="#D4ECFF"/>
<path d="M148.928 215.437C148.928 216.033 148.51 216.276 147.992 215.978C147.475 215.68 147.056 214.952 147.056 214.345C147.056 213.749 147.475 213.506 147.992 213.804C148.51 214.102 148.928 214.83 148.928 215.437Z" fill="#E44C4C"/>
<path d="M152.905 217.732C152.905 218.328 152.486 218.571 151.968 218.273C151.451 217.975 151.032 217.247 151.032 216.64C151.032 216.033 151.451 215.801 151.968 216.099C152.486 216.408 152.905 217.136 152.905 217.732Z" fill="#D4ECFF"/>
<path d="M156.891 220.039C156.891 220.634 156.473 220.877 155.955 220.579C155.438 220.281 155.019 219.553 155.019 218.946C155.019 218.339 155.438 218.108 155.955 218.406C156.473 218.714 156.891 219.443 156.891 220.039Z" fill="white"/>
<path d="M148.928 245.351C148.928 245.947 148.51 246.189 147.992 245.891C147.475 245.593 147.056 244.865 147.056 244.258C147.056 243.651 147.475 243.42 147.992 243.718C148.51 244.016 148.928 244.744 148.928 245.351Z" fill="white"/>
<path d="M152.905 247.646C152.905 248.242 152.486 248.484 151.968 248.186C151.451 247.889 151.032 247.16 151.032 246.553C151.032 245.958 151.451 245.715 151.968 246.013C152.486 246.322 152.905 247.05 152.905 247.646Z" fill="#E44C4C"/>
<path d="M156.891 249.952C156.891 250.548 156.473 250.791 155.955 250.493C155.438 250.195 155.019 249.466 155.019 248.86C155.019 248.264 155.438 248.021 155.955 248.319C156.473 248.617 156.891 249.356 156.891 249.952Z" fill="white"/>
<path d="M148.928 274.823C148.928 275.419 148.51 275.661 147.992 275.363C147.475 275.066 147.056 274.337 147.056 273.73C147.056 273.135 147.475 272.892 147.992 273.19C148.51 273.488 148.928 274.216 148.928 274.823Z" fill="white"/>
<path d="M152.905 277.129C152.905 277.725 152.486 277.967 151.968 277.67C151.451 277.372 151.032 276.643 151.032 276.036C151.032 275.43 151.451 275.198 151.968 275.496C152.486 275.794 152.905 276.522 152.905 277.129Z" fill="#D4ECFF"/>
<path d="M156.891 279.424C156.891 280.02 156.473 280.263 155.955 279.965C155.438 279.667 155.019 278.938 155.019 278.332C155.019 277.725 155.438 277.493 155.955 277.791C156.473 278.1 156.891 278.828 156.891 279.424Z" fill="#D4ECFF"/>
<path d="M148.928 304.703C148.928 305.299 148.51 305.542 147.992 305.244C147.475 304.946 147.056 304.218 147.056 303.611C147.056 303.015 147.475 302.772 147.992 303.07C148.51 303.368 148.928 304.096 148.928 304.703Z" fill="white"/>
<path d="M152.905 306.998C152.905 307.594 152.486 307.837 151.968 307.539C151.451 307.241 151.032 306.513 151.032 305.906C151.032 305.299 151.451 305.067 151.968 305.365C152.486 305.674 152.905 306.402 152.905 306.998Z" fill="#E44C4C"/>
<path d="M156.639 309.908C157.007 309.695 157.008 309.004 156.64 308.366C156.272 307.727 155.675 307.382 155.306 307.596C154.937 307.809 154.937 308.5 155.305 309.138C155.673 309.777 156.27 310.121 156.639 309.908Z" fill="#D4ECFF"/>
<path d="M177.256 317.9V185.005L177.531 184.851L232.974 152.786V285.68L232.698 285.835L177.256 317.9ZM178.357 185.634V315.991L231.872 285.04V154.684L178.357 185.634Z" fill="#173D7A"/>
<path d="M218.568 212.568L193.71 226.946C192.036 227.917 190.681 226.891 190.681 224.651V210.847C190.681 208.618 192.036 206.025 193.71 205.054L218.568 190.677C220.242 189.706 221.596 190.732 221.596 192.972V206.776C221.596 209.015 220.242 211.608 218.568 212.568Z" fill="#173D7A"/>
<path d="M219.174 190.423C219.317 190.809 219.394 191.273 219.394 191.802V205.606C219.394 207.835 218.039 210.428 216.365 211.399L191.508 225.776C191.298 225.898 191.1 225.986 190.902 226.041C191.353 227.255 192.433 227.685 193.699 226.946L218.557 212.568C220.231 211.597 221.586 209.015 221.586 206.775V192.972C221.597 191.019 220.551 189.993 219.174 190.423Z" fill="#5793CE"/>
<path d="M214.031 204.26C214.493 203.995 214.868 204.205 214.868 204.745V207.89C214.868 208.42 214.493 209.071 214.031 209.336C213.568 209.6 213.194 209.391 213.194 208.85V205.705C213.205 205.165 213.568 204.525 214.031 204.26Z" fill="white"/>
<path d="M210.463 206.709C210.926 206.445 211.3 206.654 211.3 207.195V209.942C211.3 210.472 210.926 211.123 210.463 211.388C210 211.653 209.626 211.443 209.626 210.902V208.155C209.637 207.625 210.011 206.974 210.463 206.709Z" fill="#E44C4C"/>
<path d="M206.905 205.705C207.368 205.441 207.742 205.65 207.742 206.191V212.017C207.742 212.546 207.368 213.197 206.905 213.462C206.443 213.727 206.068 213.517 206.068 212.977V207.151C206.068 206.621 206.443 205.97 206.905 205.705Z" fill="#E44C4C"/>
<path d="M203.337 204.414C203.799 204.15 204.174 204.359 204.174 204.9V214.08C204.174 214.61 203.799 215.261 203.337 215.526C202.874 215.791 202.5 215.581 202.5 215.04V205.86C202.5 205.319 202.874 204.679 203.337 204.414Z" fill="#E44C4C"/>
<path d="M199.769 207.438C200.231 207.173 200.606 207.382 200.606 207.923V216.144C200.606 216.673 200.231 217.324 199.769 217.589C199.306 217.854 198.932 217.644 198.932 217.104V208.883C198.932 208.353 199.306 207.702 199.769 207.438Z" fill="#E44C4C"/>
<path d="M196.2 213.253C196.663 212.988 197.037 213.197 197.037 213.738V218.196C197.037 218.726 196.663 219.377 196.2 219.641C195.738 219.906 195.363 219.697 195.363 219.156V214.698C195.374 214.168 195.749 213.517 196.2 213.253Z" fill="white"/>
<path d="M213.216 202.671C213.216 203.19 213.579 203.41 214.031 203.145C214.482 202.881 214.846 202.252 214.846 201.722C214.846 201.203 214.482 200.983 214.031 201.248C213.579 201.512 213.216 202.141 213.216 202.671Z" fill="#E44C4C"/>
<path d="M213.216 199.714C213.216 200.232 213.579 200.453 214.031 200.188C214.482 199.923 214.846 199.294 214.846 198.765C214.846 198.235 214.482 198.026 214.031 198.29C213.579 198.555 213.216 199.184 213.216 199.714Z" fill="white"/>
</svg>
